<?xml version="1.0" encoding="UTF-8" standalone="no"?>
<!-- Created with Inkscape (http://www.inkscape.org/) -->

<svg
   xmlns:dc="http://purl.org/dc/elements/1.1/"
   xmlns:cc="http://creativecommons.org/ns#"
   xmlns:rdf="http://www.w3.org/1999/02/22-rdf-syntax-ns#"
   xmlns:svg="http://www.w3.org/2000/svg"
   xmlns="http://www.w3.org/2000/svg"
   xmlns:sodipodi="http://sodipodi.sourceforge.net/DTD/sodipodi-0.dtd"
   xmlns:inkscape="http://www.inkscape.org/namespaces/inkscape"
   width="39.872318mm"
   height="24.375561mm"
   viewBox="0 0 141.27987 86.370097"
   id="svg5495"
   version="1.1"
   inkscape:version="0.92.2 (5c3e80d, 2017-08-06)"
   sodipodi:docname="cadquery-gui_logo_dark.svg">
  <defs
     id="defs5497" />
  <sodipodi:namedview
     id="base"
     pagecolor="#ffffff"
     bordercolor="#666666"
     borderopacity="1.0"
     inkscape:pageopacity="0.0"
     inkscape:pageshadow="2"
     inkscape:zoom="4.3709362"
     inkscape:cx="46.456243"
     inkscape:cy="43.185049"
     inkscape:document-units="px"
     inkscape:current-layer="layer1"
     showgrid="false"
     fit-margin-top="0"
     fit-margin-left="0"
     fit-margin-right="0"
     fit-margin-bottom="0"
     inkscape:window-width="3706"
     inkscape:window-height="2049"
     inkscape:window-x="134"
     inkscape:window-y="55"
     inkscape:window-maximized="1"
     inkscape:snap-to-guides="true" />
  <metadata
     id="metadata5500">
    <rdf:RDF>
      <cc:Work
         rdf:about="">
        <dc:format>image/svg+xml</dc:format>
        <dc:type
           rdf:resource="http://purl.org/dc/dcmitype/StillImage" />
        <dc:title></dc:title>
      </cc:Work>
    </rdf:RDF>
  </metadata>
  <g
     inkscape:label="Layer 1"
     inkscape:groupmode="layer"
     id="layer1"
     transform="translate(-284.70147,-477.74859)">
    <path
       inkscape:connector-curvature="0"
       style="fill:#2980b9;fill-opacity:1;fill-rule:evenodd;stroke:#2980b9;stroke-width:3;stroke-linecap:butt;stroke-linejoin:round;stroke-opacity:1"
       d="m 286.20147,479.24859 h 91.71655 v 83.37009 h -91.71655 z"
       id="path4266" />
    <g
       aria-label="cq"
       style="font-style:normal;font-weight:normal;line-height:0%;font-family:sans-serif;letter-spacing:0px;word-spacing:0px;fill:#000000;fill-opacity:1;stroke:none;stroke-width:1px;stroke-linecap:butt;stroke-linejoin:miter;stroke-opacity:1"
       id="text4873">
      <path
         d="m 324.47186,499.57233 v 9.98047 q -2.49511,-1.70899 -5.02441,-2.5293 -2.49512,-0.82031 -5.19531,-0.82031 -5.12696,0 -7.99805,3.00781 -2.83691,2.97363 -2.83691,8.33984 0,5.36621 2.83691,8.37403 2.87109,2.97363 7.99805,2.97363 2.87109,0 5.43457,-0.85449 2.59765,-0.8545 4.78515,-2.5293 v 10.01465 q -2.87109,1.05957 -5.84472,1.57226 -2.93946,0.54688 -5.91309,0.54688 -10.35645,0 -16.20117,-5.29785 -5.84473,-5.33203 -5.84473,-14.79981 0,-9.46777 5.84473,-14.76562 5.84472,-5.33203 16.20117,-5.33203 3.00781,0 5.91309,0.54687 2.93945,0.5127 5.84472,1.57227 z"
         style="font-style:normal;font-variant:normal;font-weight:bold;font-stretch:normal;font-size:70px;line-height:1.25;font-family:Roboto;-inkscape-font-specification:'Roboto Bold';fill:#ffffff;fill-opacity:1"
         id="path4538" />
      <path
         d="m 353.08026,506.3399 q -3.89648,0 -5.98144,2.8711 -2.05079,2.87109 -2.05079,8.33984 0,5.46875 2.05079,8.33985 2.08496,2.87109 5.98144,2.87109 3.93067,0 5.98145,-2.87109 2.08496,-2.8711 2.08496,-8.33985 0,-5.46875 -2.08496,-8.33984 -2.05078,-2.8711 -5.98145,-2.8711 z m 8.06641,24.78028 q -2.5293,3.38379 -5.57129,4.95605 -3.04199,1.57227 -7.04102,1.57227 -7.07519,0 -11.62109,-5.60547 -4.5459,-5.63965 -4.5459,-14.49219 0,-8.85254 4.5459,-14.42383 4.5459,-5.60546 11.62109,-5.60546 3.99903,0 7.04102,1.57226 3.04199,1.57227 5.57129,4.95606 v -5.67383 h 12.30468 v 52.84179 h -12.30468 z"
         style="font-style:normal;font-variant:normal;font-weight:bold;font-stretch:normal;font-size:70px;line-height:1.25;font-family:Roboto;-inkscape-font-specification:'Roboto Bold';fill:#ffffff;fill-opacity:1"
         id="path4540" />
    </g>
    <path
       id="path4532"
       d="m 379.51245,478.80957 h 45.4079 v 84.24813 h -45.4079 z"
       style="fill:#ff8c00;fill-opacity:1;fill-rule:evenodd;stroke:#ff8c00;stroke-width:2.12196445;stroke-linecap:butt;stroke-linejoin:round;stroke-opacity:1"
       inkscape:connector-curvature="0" />
    <g
       aria-label="g"
       style="font-style:normal;font-weight:normal;line-height:0%;font-family:sans-serif;letter-spacing:0px;word-spacing:0px;fill:#000000;fill-opacity:1;stroke:none;stroke-width:1px;stroke-linecap:butt;stroke-linejoin:miter;stroke-opacity:1"
       id="text4536">
      <path
         d="m 410.4537,530.16315 q -2.52929,3.34961 -5.57128,4.92187 -3.042,1.57227 -7.04102,1.57227 -7.00684,0 -11.58691,-5.50293 -4.58008,-5.53711 -4.58008,-14.08203 0,-8.5791 4.58008,-14.04785 4.58007,-5.50293 11.58691,-5.50293 3.99902,0 7.04102,1.57226 3.04199,1.57227 5.57128,4.95606 v -5.67383 h 12.30469 v 34.41894 q 0,9.22852 -5.84472,14.08203 -5.81055,4.8877 -16.88477,4.8877 -3.58887,0 -6.93848,-0.54688 -3.34961,-0.54687 -6.73339,-1.6748 v -9.53613 q 3.21289,1.8457 6.28906,2.73437 3.07617,0.92285 6.18652,0.92285 6.01563,0 8.81836,-2.63183 2.80273,-2.63184 2.80273,-8.23731 z m -8.0664,-23.82325 q -3.79395,0 -5.91309,2.80274 -2.11914,2.80273 -2.11914,7.92969 0,5.26367 2.05078,7.99804 2.05078,2.7002 5.98145,2.7002 3.82812,0 5.94726,-2.80274 2.11914,-2.80273 2.11914,-7.8955 0,-5.12696 -2.11914,-7.92969 -2.11914,-2.80274 -5.94726,-2.80274 z"
         style="font-style:normal;font-variant:normal;font-weight:bold;font-stretch:normal;font-size:70px;line-height:1.25;font-family:Roboto;-inkscape-font-specification:'Roboto Bold';fill:#ffffff;fill-opacity:1"
         id="path4543" />
    </g>
  </g>
</svg>
